<?xml version="1.0" standalone="no"?>
<!DOCTYPE svg PUBLIC "-//W3C//DTD SVG 20010904//EN"
 "http://www.w3.org/TR/2001/REC-SVG-20010904/DTD/svg10.dtd">
<svg version="1.0" xmlns="http://www.w3.org/2000/svg"
 width="960.000000pt" height="960.000000pt" viewBox="0 0 960.000000 960.000000"
 preserveAspectRatio="xMidYMid meet">
<metadata>
Created by potrace 1.11, written by Peter Selinger 2001-2013
</metadata>
<g transform="translate(0.000000,960.000000) scale(0.100000,-0.100000)"
fill="#000000" stroke="none">
<path d="M4485 7693 c-16 -2 -172 -4 -345 -7 -393 -5 -475 -10 -625 -42 -66
-14 -133 -28 -150 -30 -39 -6 -182 -53 -315 -102 -113 -42 -404 -189 -443
-223 -7 -6 -57 -42 -112 -80 -55 -38 -132 -97 -171 -131 l-71 -62 -154 -2
c-145 -1 -286 -10 -319 -19 -8 -3 -31 -7 -50 -9 -110 -16 -358 -102 -398 -139
-42 -39 -49 -128 -13 -177 10 -14 32 -35 50 -47 30 -21 43 -22 254 -22 122 0
230 0 239 -1 14 0 9 -13 -25 -67 -23 -38 -44 -70 -47 -73 -17 -15 -80 -126
-118 -205 -23 -49 -46 -97 -52 -105 -19 -29 -42 -86 -85 -205 -23 -66 -48
-132 -54 -147 -6 -16 -8 -28 -5 -28 2 0 0 -9 -6 -20 -6 -11 -27 -100 -46 -197
-20 -98 -37 -185 -39 -193 -17 -85 -24 -459 -10 -605 4 -49 9 -142 10 -205 2
-78 9 -141 23 -195 80 -309 29 -530 -166 -710 -38 -34 -148 -146 -217 -219
-12 -11 -41 -48 -65 -81 -25 -33 -48 -61 -52 -63 -5 -2 -8 -8 -8 -12 0 -5 -14
-33 -31 -62 -76 -128 -108 -272 -103 -464 1 -68 6 -129 9 -135 4 -5 9 -29 11
-52 3 -23 14 -73 26 -112 11 -38 21 -75 22 -81 6 -36 80 -184 134 -268 67
-102 241 -286 271 -286 5 0 14 -7 21 -15 13 -16 171 -105 193 -109 6 -1 22 -8
35 -14 23 -13 153 -50 207 -59 24 -4 276 -10 540 -13 45 0 639 -1 675 -1 109
1 366 1 370 0 3 -1 10 0 15 1 26 5 455 1 464 -5 6 -3 11 -3 11 2 0 9 243 8
266 -1 8 -3 14 -2 14 2 0 4 89 7 199 6 168 0 217 3 317 23 147 29 136 26 271
57 61 14 122 28 135 30 12 3 23 5 23 6 0 1 11 3 25 6 135 24 251 100 297 193
27 56 23 150 -7 194 -14 20 -33 38 -42 41 -27 6 -22 22 12 36 16 7 46 28 66
48 l37 36 581 1 c320 1 610 5 646 8 36 4 101 9 145 13 44 3 106 12 138 19 31
7 57 11 57 9 0 -3 8 0 18 5 10 5 38 12 62 16 25 4 47 8 50 10 3 2 21 6 40 9
53 8 335 112 414 152 165 83 214 109 261 138 28 17 52 33 55 37 3 3 41 30 85
60 44 30 84 57 90 61 23 15 234 206 280 252 46 47 100 109 171 196 16 19 32
37 35 40 21 16 225 341 253 402 18 40 52 111 76 158 33 68 67 153 75 190 0 3
17 55 37 115 20 61 39 124 42 140 3 17 7 39 10 50 3 11 15 70 26 130 11 61 22
119 24 130 16 87 23 395 12 570 -10 164 -12 177 -61 415 -3 14 -10 45 -15 70
-17 87 -113 356 -167 470 -83 174 -111 226 -183 335 -36 55 -75 114 -85 132
-11 17 -41 55 -67 85 -25 29 -75 86 -110 127 -34 41 -85 95 -112 120 -27 25
-64 60 -82 76 -86 80 -133 120 -174 148 -25 17 -46 34 -48 39 -2 4 -8 8 -12 8
-10 0 -53 28 -110 72 -39 29 -70 46 -240 135 -113 59 -416 174 -495 189 -61
11 -64 12 -134 28 -165 36 -166 37 -441 52 -93 5 -1985 11 -2045 7z"/>
</g>
</svg>
